<svg width="160" height="158" viewBox="0 0 160 158" fill="none" xmlns="http://www.w3.org/2000/svg">
<g filter="url(#filter0_d)">
<path d="M34 40C34 28.9543 42.9543 20 54 20H126V90C126 101.046 117.046 110 106 110H54C42.9543 110 34 101.046 34 90V40Z" fill="white"/>
</g>
<g filter="url(#filter1_d)">
<rect x="55" y="38" width="50" height="50" rx="10" fill="#3D41D7"/>
</g>
<path fill-rule="evenodd" clip-rule="evenodd" d="M81.3636 54C81.3636 53.4477 80.9159 53 80.3636 53H79.6364C79.0841 53 78.6364 53.4477 78.6364 54V60.6364C78.6364 61.1886 78.1886 61.6364 77.6364 61.6364H71C70.4477 61.6364 70 62.0841 70 62.6364V63.3636C70 63.9159 70.4477 64.3636 71 64.3636H77.6364C78.1886 64.3636 78.6364 64.8114 78.6364 65.3636V72C78.6364 72.5523 79.0841 73 79.6364 73H80.3636C80.9159 73 81.3636 72.5523 81.3636 72V65.3636C81.3636 64.8114 81.8114 64.3636 82.3636 64.3636H89C89.5523 64.3636 90 63.9159 90 63.3636V62.6364C90 62.0841 89.5523 61.6364 89 61.6364H82.3636C81.8114 61.6364 81.3636 61.1886 81.3636 60.6364V54Z" fill="white"/>
<defs>
<filter id="filter0_d" x="0" y="0" width="160" height="158" filterUnits="userSpaceOnUse" color-interpolation-filters="sRGB">
<feFlood flood-opacity="0" result="BackgroundImageFix"/>
<feColorMatrix in="SourceAlpha" type="matrix" values="0 0 0 0 0 0 0 0 0 0 0 0 0 0 0 0 0 0 127 0"/>
<feOffset dy="14"/>
<feGaussianBlur stdDeviation="17"/>
<feColorMatrix type="matrix" values="0 0 0 0 0.1325 0 0 0 0 0.145427 0 0 0 0 0.6625 0 0 0 0.4 0"/>
<feBlend mode="normal" in2="BackgroundImageFix" result="effect1_dropShadow"/>
<feBlend mode="normal" in="SourceGraphic" in2="effect1_dropShadow" result="shape"/>
</filter>
<filter id="filter1_d" x="21" y="18" width="118" height="118" filterUnits="userSpaceOnUse" color-interpolation-filters="sRGB">
<feFlood flood-opacity="0" result="BackgroundImageFix"/>
<feColorMatrix in="SourceAlpha" type="matrix" values="0 0 0 0 0 0 0 0 0 0 0 0 0 0 0 0 0 0 127 0"/>
<feOffset dy="14"/>
<feGaussianBlur stdDeviation="17"/>
<feColorMatrix type="matrix" values="0 0 0 0 0.1325 0 0 0 0 0.145427 0 0 0 0 0.6625 0 0 0 0.4 0"/>
<feBlend mode="normal" in2="BackgroundImageFix" result="effect1_dropShadow"/>
<feBlend mode="normal" in="SourceGraphic" in2="effect1_dropShadow" result="shape"/>
</filter>
</defs>
</svg>
