<svg width="243" height="150" viewBox="0 0 243 150" fill="none" xmlns="http://www.w3.org/2000/svg">
<path d="M332.83 1C357.777 1 372.341 8.50099 381.562 20.4345C390.851 32.4567 394.839 49.1168 398.259 67.7532C398.836 70.8962 399.395 74.0933 399.962 77.3297C406.085 112.293 413.012 151.849 450.672 177.363C488.742 203.154 529.731 195.299 565.478 188.449C568.357 187.898 571.203 187.352 574.01 186.832C592.931 183.323 610.029 180.941 624.315 184.889C638.473 188.802 650.024 198.987 657.72 221.072C673.281 265.729 681 292.616 681 319.462C681 346.307 673.281 373.194 657.72 417.852C642.16 462.505 631.455 488.494 614.526 510.221C597.593 531.953 574.385 549.484 533.646 577.083C513.383 590.811 497.843 595.596 484.389 595.188C470.922 594.779 459.38 589.167 447.082 581.732C443.933 579.828 440.739 577.808 437.458 575.731C415.117 561.596 388.689 544.875 344.5 544.875C301.694 544.875 271.38 560.57 244.673 574.397C239.788 576.926 235.024 579.393 230.326 581.689C215.11 589.128 200.624 594.777 184.922 595.187C169.248 595.597 152.245 590.789 132.014 577.083C91.2745 549.484 68.0669 531.953 51.134 510.221C34.2046 488.494 23.4996 462.505 7.93975 417.852C0.193188 395.62 -0.510338 380.822 3.0914 369.715C6.69137 358.613 14.6516 351.003 24.7376 343.26C27.3434 341.259 30.0853 339.255 32.9183 337.184C52.0044 323.23 75.2285 306.252 88.8779 267.081C101.695 230.298 97.6152 198.182 93.9732 169.513C93.1683 163.177 92.3847 157.009 91.8097 150.997C90.218 134.353 90.2131 118.913 95.6021 104.228C100.982 89.5672 111.782 75.546 132.014 61.8396C172.749 34.2428 197.807 19.0737 225.22 10.7683C252.636 2.46198 282.476 1 332.83 1Z" stroke="white" stroke-width="2"/>
</svg>
