<svg width="358" height="280" viewBox="0 0 358 280" fill="none" xmlns="http://www.w3.org/2000/svg">
<path d="M212.328 0.545581C228.606 0.5924 238.156 0.85732 243.874 2.08267C246.723 2.69326 248.558 3.53091 249.792 4.64963C251.018 5.76022 251.702 7.19504 252.156 9.11407C252.556 10.8082 252.766 12.8319 253.022 15.2939C253.058 15.6457 253.096 16.0064 253.135 16.3764C253.446 19.3211 253.856 22.809 254.719 26.9263C256.446 35.1656 259.981 45.8977 268.134 59.8815C275.803 73.033 277.69 83.611 279.337 92.8469C279.425 93.3411 279.513 93.8314 279.6 94.318C281.329 103.917 283.127 112.143 291.587 120.216C300.01 128.255 314.998 136.107 342.97 145.17C370.957 154.238 412.004 164.535 472.606 177.428C502.895 183.872 525.982 190.065 543.149 196.105C560.328 202.149 571.536 208.025 578.107 213.814C584.656 219.583 586.548 225.213 585.245 230.842C583.926 236.539 579.311 242.359 572.522 248.406C565.746 254.44 556.882 260.634 547.181 267.097C544.276 269.032 541.296 270.991 538.276 272.976C531.222 277.614 523.951 282.395 516.911 287.345C506.855 294.417 497.247 301.853 489.377 309.75C481.509 317.646 475.354 326.026 472.238 334.994C470.415 340.242 468.675 345.325 466.992 350.246C457.281 378.63 449.418 401.613 437.863 419.595C424.339 440.641 405.753 454.832 373.137 462.673C340.674 470.478 320.741 454.306 298.737 435.978L297.934 435.309C276.165 417.171 252.268 397.26 212.329 397.26C172.291 397.26 148.196 417.227 126.289 435.38L125.649 435.911C103.551 454.219 83.6185 470.39 51.5221 462.673C-12.9139 447.181 -39.5128 392.759 -47.5562 335.089C-49.5615 320.711 -48.2499 310.976 -44.7712 303.212C-41.2869 295.436 -35.6068 289.583 -28.7431 282.991C-28.028 282.304 -27.3007 281.61 -26.5623 280.905C-13.1167 268.069 3.97161 251.756 17.1002 213.974C29.3468 178.73 28.4817 152.248 27.7337 129.35C27.6361 126.363 27.5405 123.437 27.4763 120.56C27.1981 108.096 27.5084 96.5837 30.7647 85.0358C34.0184 73.4969 40.2224 61.8933 51.774 49.2755C96.7528 0.145287 144.619 0.311502 207.106 0.528493C208.836 0.534498 210.576 0.540542 212.328 0.545581Z" stroke="white"/>
</svg>
