<svg width="358" height="249" viewBox="0 0 358 249" fill="none" xmlns="http://www.w3.org/2000/svg">
<path d="M214.981 16.9808C228.123 21.7233 236.235 28.9367 241.822 37.6029C247.434 46.3096 250.524 56.5169 253.545 67.3301C253.802 68.2482 254.057 69.1703 254.314 70.0958C260.089 90.9056 266.338 113.424 290.628 129.863C315.318 146.571 339.761 144.301 361.975 142.238C362.578 142.182 363.18 142.126 363.78 142.07C386.549 139.97 406.745 138.666 423.345 157.982C435.997 172.706 449.852 179.583 461.045 185.139C464.98 187.092 468.587 188.882 471.696 190.792C477.694 194.477 481.874 198.581 483.454 205.112C485.052 211.719 484.036 220.99 479.112 235.107C469.274 263.309 448.502 298.932 423.654 328.448C411.233 343.202 397.816 356.405 384.265 366.385C370.705 376.371 357.071 383.086 344.211 384.953C331.279 386.831 321.437 385.514 312.911 382.509C304.487 379.539 297.312 374.912 289.626 369.956L289.263 369.722C273.599 359.621 256.035 348.482 222.556 348.482C189.112 348.482 167.473 359.437 147.985 369.434L147.528 369.669C128.233 379.568 111.098 388.36 86.4227 384.952C61.4125 381.498 35.2327 369.193 14.5045 352.005C-6.2337 334.809 -21.3975 312.828 -24.5807 290.093C-26.1549 278.85 -23.1875 270.869 -17.5263 264.178C-11.8039 257.415 -3.32507 251.958 6.22628 245.855L6.53976 245.655C25.5066 233.536 48.2089 219.031 59.3444 187.109C69.5981 157.715 65.8482 130.33 62.4605 105.589C62.1588 103.386 61.8601 101.204 61.5743 99.0439C58.0677 72.5319 56.5372 49.3663 74.792 29.504C93.1855 9.49061 114.883 1.57044 138.638 1.02991C162.44 0.488285 188.315 7.3579 214.981 16.9808Z" stroke="white" stroke-width="2"/>
</svg>
