<svg width="170" height="90" viewBox="0 0 170 90" fill="none" xmlns="http://www.w3.org/2000/svg">
<path d="M261.328 0.545581C277.606 0.5924 287.156 0.85732 292.874 2.08267C295.723 2.69326 297.558 3.53091 298.792 4.64963C300.018 5.76022 300.702 7.19504 301.156 9.11407C301.556 10.8082 301.766 12.8319 302.022 15.2939C302.058 15.6457 302.096 16.0064 302.135 16.3764C302.446 19.3211 302.856 22.809 303.719 26.9263C305.446 35.1656 308.981 45.8977 317.134 59.8815C324.803 73.033 326.69 83.611 328.337 92.8469C328.425 93.3411 328.513 93.8314 328.6 94.318C330.329 103.917 332.127 112.143 340.587 120.216C349.01 128.255 363.998 136.107 391.97 145.17C419.957 154.238 461.004 164.535 521.606 177.428C551.895 183.872 574.982 190.065 592.149 196.105C609.328 202.149 620.536 208.025 627.107 213.814C633.656 219.583 635.548 225.213 634.245 230.842C632.926 236.539 628.311 242.359 621.522 248.406C614.746 254.44 605.882 260.634 596.181 267.097C593.276 269.032 590.296 270.991 587.276 272.976C580.222 277.614 572.951 282.395 565.911 287.345C555.855 294.417 546.247 301.853 538.377 309.75C530.509 317.646 524.354 326.026 521.238 334.994C519.415 340.242 517.675 345.325 515.992 350.246C506.281 378.63 498.418 401.613 486.863 419.595C473.339 440.641 454.753 454.832 422.137 462.673C389.674 470.478 369.741 454.306 347.737 435.978L346.934 435.309C325.165 417.171 301.268 397.26 261.329 397.26C221.291 397.26 197.196 417.227 175.289 435.38L174.649 435.911C152.551 454.219 132.619 470.39 100.522 462.673C36.0861 447.181 9.48717 392.759 1.44383 335.089C-0.561547 320.711 0.750105 310.976 4.22875 303.212C7.71311 295.436 13.3932 289.583 20.2569 282.991C20.972 282.304 21.6993 281.61 22.4377 280.905C35.8833 268.069 52.9716 251.756 66.1002 213.974C78.3468 178.73 77.4817 152.248 76.7337 129.35C76.6361 126.363 76.5405 123.437 76.4763 120.56C76.1981 108.096 76.5084 96.5837 79.7647 85.0358C83.0184 73.4969 89.2224 61.8933 100.774 49.2755C145.753 0.145287 193.619 0.311502 256.106 0.528493C257.836 0.534498 259.576 0.540542 261.328 0.545581Z" stroke="white"/>
</svg>
