<svg width="147" height="59" viewBox="0 0 147 59" fill="none" xmlns="http://www.w3.org/2000/svg">
<path d="M240.981 16.9808C254.123 21.7233 262.235 28.9367 267.822 37.6029C273.434 46.3096 276.524 56.5169 279.545 67.3301C279.802 68.2482 280.057 69.1703 280.314 70.0958C286.089 90.9056 292.338 113.424 316.628 129.863C341.318 146.571 365.761 144.301 387.975 142.238C388.578 142.182 389.18 142.126 389.78 142.07C412.549 139.97 432.745 138.666 449.345 157.982C461.997 172.706 475.852 179.583 487.045 185.139C490.98 187.092 494.587 188.882 497.696 190.792C503.694 194.477 507.874 198.581 509.454 205.112C511.052 211.719 510.036 220.99 505.112 235.107C495.274 263.309 474.502 298.932 449.654 328.448C437.233 343.202 423.816 356.405 410.265 366.385C396.705 376.371 383.071 383.086 370.211 384.953C357.279 386.831 347.437 385.514 338.911 382.509C330.487 379.539 323.312 374.912 315.626 369.956L315.263 369.722C299.599 359.621 282.035 348.482 248.556 348.482C215.112 348.482 193.473 359.437 173.985 369.434L173.528 369.669C154.233 379.568 137.098 388.36 112.423 384.952C87.4125 381.498 61.2327 369.193 40.5045 352.005C19.7663 334.809 4.60251 312.828 1.41929 290.093C-0.154861 278.85 2.81249 270.869 8.47366 264.178C14.1961 257.415 22.6749 251.958 32.2263 245.855L32.5398 245.655C51.5066 233.536 74.2089 219.031 85.3444 187.109C95.5981 157.715 91.8482 130.33 88.4605 105.589C88.1588 103.386 87.8601 101.204 87.5743 99.0439C84.0677 72.5319 82.5372 49.3663 100.792 29.504C119.186 9.49061 140.883 1.57044 164.638 1.02991C188.44 0.488285 214.315 7.3579 240.981 16.9808Z" stroke="white" stroke-width="2"/>
</svg>
