<svg width="358" height="340" viewBox="0 0 358 340" fill="none" xmlns="http://www.w3.org/2000/svg">
<path d="M210.83 1C235.777 1 250.341 8.50099 259.562 20.4345C268.851 32.4567 272.839 49.1168 276.259 67.7532C276.836 70.8962 277.395 74.0933 277.962 77.3297C284.085 112.293 291.012 151.849 328.672 177.363C366.742 203.154 407.731 195.299 443.478 188.449C446.357 187.898 449.203 187.352 452.01 186.832C470.931 183.323 488.029 180.941 502.315 184.889C516.473 188.802 528.024 198.987 535.72 221.072C551.281 265.729 559 292.616 559 319.462C559 346.307 551.281 373.194 535.72 417.852C520.16 462.505 509.455 488.494 492.526 510.221C475.593 531.953 452.385 549.484 411.646 577.083C391.383 590.811 375.843 595.596 362.389 595.188C348.922 594.779 337.38 589.167 325.082 581.732C321.933 579.828 318.739 577.808 315.458 575.731C293.117 561.596 266.689 544.875 222.5 544.875C179.694 544.875 149.38 560.57 122.673 574.397C117.788 576.926 113.024 579.393 108.326 581.689C93.1105 589.128 78.6243 594.777 62.9216 595.187C47.2478 595.597 30.2447 590.789 10.014 577.083C-30.7255 549.484 -53.9331 531.953 -70.866 510.221C-87.7954 488.494 -98.5004 462.505 -114.06 417.852C-121.807 395.62 -122.51 380.822 -118.909 369.715C-115.309 358.613 -107.348 351.003 -97.2624 343.26C-94.6566 341.259 -91.9147 339.255 -89.0817 337.184C-69.9956 323.23 -46.7715 306.252 -33.1221 267.081C-20.3048 230.298 -24.3848 198.182 -28.0268 169.513C-28.8317 163.177 -29.6153 157.009 -30.1903 150.997C-31.782 134.353 -31.7869 118.913 -26.3979 104.228C-21.0179 89.5672 -10.2178 75.546 10.014 61.8396C50.7492 34.2428 75.8071 19.0737 103.22 10.7683C130.636 2.46198 160.476 1 210.83 1Z" stroke="white" stroke-width="2"/>
</svg>
