<svg width="345" height="233" viewBox="0 0 345 233" fill="none" xmlns="http://www.w3.org/2000/svg">
<path d="M134.324 0.5C147.035 0.5 158.814 6.65765 170.013 16.4215C181.211 26.1854 191.779 39.5124 202.063 53.7576C206.358 59.7064 210.609 65.8233 214.833 71.9031C220.706 80.3544 226.529 88.734 232.351 96.4908C242.37 109.838 252.458 121.442 262.953 128.565C283.854 142.753 300.574 148.451 317.039 150.592C328.613 152.096 340.074 151.841 352.736 151.559C358.041 151.441 363.558 151.318 369.382 151.318C388.996 151.318 410.332 162.022 424.784 178.44C439.228 194.848 446.739 216.894 438.852 239.574C430.959 262.267 408.139 278.669 381.93 292.963C372.091 298.329 361.801 303.386 351.672 308.363C348.322 310.009 344.99 311.646 341.697 313.283C328.459 319.866 315.864 326.442 305.413 333.537C300.252 337.04 295.686 338.741 291.55 339.074C287.421 339.407 283.679 338.38 280.154 336.357C273.067 332.288 266.902 324.223 260.354 315.157C259.749 314.318 259.14 313.471 258.527 312.619C252.543 304.294 246.172 295.43 238.484 288.433C229.993 280.707 219.864 275.227 206.824 275.227C193.788 275.227 183.141 280.703 173.874 288.419C165.709 295.216 158.583 303.78 151.825 311.903C150.922 312.987 150.026 314.065 149.135 315.128C141.545 324.189 134.335 332.268 126.458 336.346C122.534 338.378 118.458 339.408 114.093 339.074C109.725 338.74 105.029 337.037 99.8732 333.537C80.3951 320.315 61.3049 323.989 45.0132 327.124C43.7053 327.376 42.4154 327.624 41.1448 327.86C32.5576 329.453 24.9134 330.465 18.4329 328.297C12.0067 326.147 6.62247 320.826 2.67391 309.472C-1.25263 298.181 0.421861 287.004 5.4391 275.835C10.4614 264.655 18.8181 253.519 28.2032 242.344C32.0711 237.739 36.121 233.119 40.1792 228.49C45.9413 221.917 51.72 215.325 57.0182 208.728C66.0605 197.469 73.785 186.102 77.7944 174.573C84.3523 155.717 82.265 139.253 80.4013 124.554C79.9894 121.305 79.5883 118.142 79.2941 115.059C78.4795 106.524 78.4767 98.6051 81.2355 91.0727C83.9898 83.5525 89.5185 76.3614 99.8732 69.3327C110.4 62.187 114.646 54.2244 115.854 46.2884C117.008 38.6965 115.372 31.1696 113.929 24.5346C113.871 24.2692 113.814 24.0052 113.757 23.7427C113.013 20.3135 112.357 17.1483 112.182 14.3148C112.007 11.4833 112.317 9.04202 113.457 7.03651C115.72 3.05172 121.445 0.5 134.324 0.5Z" stroke="white"/>
</svg>
