<svg width="204" height="202" viewBox="0 0 204 202" fill="none" xmlns="http://www.w3.org/2000/svg">
<g filter="url(#filter0_d)">
<rect x="34" y="20" width="136" height="134" rx="20" fill="#3D41D7"/>
</g>
<path d="M67.3716 129.12C66.8582 129.12 66.4116 129.027 66.0316 128.84C65.6516 128.653 65.3582 128.393 65.1516 128.06C64.9449 127.727 64.8416 127.34 64.8416 126.9H65.7216C65.7216 127.173 65.7849 127.427 65.9116 127.66C66.0382 127.887 66.2216 128.07 66.4616 128.21C66.7082 128.343 67.0116 128.41 67.3716 128.41C67.8449 128.41 68.2116 128.297 68.4716 128.07C68.7316 127.843 68.8616 127.56 68.8616 127.22C68.8616 126.94 68.8016 126.717 68.6816 126.55C68.5616 126.377 68.3982 126.237 68.1916 126.13C67.9916 126.023 67.7582 125.93 67.4916 125.85C67.2316 125.77 66.9582 125.68 66.6716 125.58C66.1316 125.393 65.7316 125.163 65.4716 124.89C65.2116 124.61 65.0816 124.247 65.0816 123.8C65.0749 123.427 65.1616 123.097 65.3416 122.81C65.5216 122.517 65.7749 122.29 66.1016 122.13C66.4349 121.963 66.8282 121.88 67.2816 121.88C67.7282 121.88 68.1149 121.963 68.4416 122.13C68.7749 122.297 69.0316 122.527 69.2116 122.82C69.3982 123.113 69.4949 123.447 69.5016 123.82H68.6216C68.6216 123.627 68.5716 123.437 68.4716 123.25C68.3716 123.057 68.2182 122.9 68.0116 122.78C67.8116 122.66 67.5582 122.6 67.2516 122.6C66.8716 122.593 66.5582 122.69 66.3116 122.89C66.0716 123.09 65.9516 123.367 65.9516 123.72C65.9516 124.02 66.0349 124.25 66.2016 124.41C66.3749 124.57 66.6149 124.703 66.9216 124.81C67.2282 124.91 67.5816 125.027 67.9816 125.16C68.3149 125.28 68.6149 125.42 68.8816 125.58C69.1482 125.74 69.3549 125.947 69.5016 126.2C69.6549 126.453 69.7316 126.777 69.7316 127.17C69.7316 127.503 69.6449 127.82 69.4716 128.12C69.2982 128.413 69.0349 128.653 68.6816 128.84C68.3349 129.027 67.8982 129.12 67.3716 129.12ZM72.9671 129.12C72.4938 129.12 72.0671 129.013 71.6871 128.8C71.3138 128.58 71.0171 128.277 70.7971 127.89C70.5838 127.497 70.4771 127.04 70.4771 126.52C70.4771 126 70.5838 125.547 70.7971 125.16C71.0171 124.767 71.3138 124.463 71.6871 124.25C72.0671 124.03 72.4938 123.92 72.9671 123.92C73.5538 123.92 74.0471 124.073 74.4471 124.38C74.8538 124.687 75.1104 125.097 75.2171 125.61H74.3571C74.2904 125.303 74.1271 125.067 73.8671 124.9C73.6071 124.727 73.3038 124.64 72.9571 124.64C72.6771 124.64 72.4138 124.71 72.1671 124.85C71.9204 124.99 71.7204 125.2 71.5671 125.48C71.4138 125.76 71.3371 126.107 71.3371 126.52C71.3371 126.933 71.4138 127.28 71.5671 127.56C71.7204 127.84 71.9204 128.053 72.1671 128.2C72.4138 128.34 72.6771 128.41 72.9571 128.41C73.3038 128.41 73.6071 128.327 73.8671 128.16C74.1271 127.987 74.2904 127.743 74.3571 127.43H75.2171C75.1171 127.93 74.8638 128.337 74.4571 128.65C74.0504 128.963 73.5538 129.12 72.9671 129.12ZM76.2045 129V121.8H77.0445V124.89C77.2112 124.583 77.4478 124.347 77.7545 124.18C78.0612 124.007 78.3945 123.92 78.7545 123.92C79.3278 123.92 79.7878 124.1 80.1345 124.46C80.4812 124.813 80.6545 125.36 80.6545 126.1V129H79.8245V126.19C79.8245 125.157 79.4078 124.64 78.5745 124.64C78.1412 124.64 77.7778 124.797 77.4845 125.11C77.1912 125.417 77.0445 125.857 77.0445 126.43V129H76.2045ZM83.9715 129.12C83.4981 129.12 83.0781 129.013 82.7115 128.8C82.3448 128.58 82.0548 128.277 81.8415 127.89C81.6348 127.503 81.5315 127.047 81.5315 126.52C81.5315 126 81.6348 125.547 81.8415 125.16C82.0481 124.767 82.3348 124.463 82.7015 124.25C83.0748 124.03 83.5048 123.92 83.9915 123.92C84.4715 123.92 84.8848 124.03 85.2315 124.25C85.5848 124.463 85.8548 124.747 86.0415 125.1C86.2281 125.453 86.3215 125.833 86.3215 126.24C86.3215 126.313 86.3181 126.387 86.3115 126.46C86.3115 126.533 86.3115 126.617 86.3115 126.71H82.3615C82.3815 127.09 82.4681 127.407 82.6215 127.66C82.7815 127.907 82.9781 128.093 83.2115 128.22C83.4515 128.347 83.7048 128.41 83.9715 128.41C84.3181 128.41 84.6081 128.33 84.8415 128.17C85.0748 128.01 85.2448 127.793 85.3515 127.52H86.1815C86.0481 127.98 85.7915 128.363 85.4115 128.67C85.0381 128.97 84.5581 129.12 83.9715 129.12ZM83.9715 124.63C83.5715 124.63 83.2148 124.753 82.9015 125C82.5948 125.24 82.4181 125.593 82.3715 126.06H85.4915C85.4715 125.613 85.3181 125.263 85.0315 125.01C84.7448 124.757 84.3915 124.63 83.9715 124.63ZM89.4991 129.12C89.0058 129.12 88.5724 129.007 88.1991 128.78C87.8324 128.553 87.5458 128.243 87.3391 127.85C87.1391 127.457 87.0391 127.01 87.0391 126.51C87.0391 126.01 87.1424 125.567 87.3491 125.18C87.5558 124.787 87.8424 124.48 88.2091 124.26C88.5758 124.033 89.0091 123.92 89.5091 123.92C89.9158 123.92 90.2758 124.003 90.5891 124.17C90.9024 124.337 91.1458 124.57 91.3191 124.87V121.8H92.1591V129H91.3991L91.3191 128.18C91.1591 128.42 90.9291 128.637 90.6291 128.83C90.3291 129.023 89.9524 129.12 89.4991 129.12ZM89.5891 128.39C89.9224 128.39 90.2158 128.313 90.4691 128.16C90.7291 128 90.9291 127.78 91.0691 127.5C91.2158 127.22 91.2891 126.893 91.2891 126.52C91.2891 126.147 91.2158 125.82 91.0691 125.54C90.9291 125.26 90.7291 125.043 90.4691 124.89C90.2158 124.73 89.9224 124.65 89.5891 124.65C89.2624 124.65 88.9691 124.73 88.7091 124.89C88.4558 125.043 88.2558 125.26 88.1091 125.54C87.9691 125.82 87.8991 126.147 87.8991 126.52C87.8991 126.893 87.9691 127.22 88.1091 127.5C88.2558 127.78 88.4558 128 88.7091 128.16C88.9691 128.313 89.2624 128.39 89.5891 128.39ZM95.1527 129.12C94.566 129.12 94.0993 128.943 93.7527 128.59C93.406 128.23 93.2327 127.68 93.2327 126.94V124.04H94.0727V126.85C94.0727 127.883 94.496 128.4 95.3427 128.4C95.776 128.4 96.1327 128.247 96.4127 127.94C96.6993 127.627 96.8427 127.183 96.8427 126.61V124.04H97.6827V129H96.9227L96.8627 128.11C96.7093 128.423 96.4793 128.67 96.1727 128.85C95.8727 129.03 95.5327 129.12 95.1527 129.12ZM98.8796 129V121.8H99.7196V129H98.8796ZM103.141 129.12C102.667 129.12 102.247 129.013 101.881 128.8C101.514 128.58 101.224 128.277 101.011 127.89C100.804 127.503 100.701 127.047 100.701 126.52C100.701 126 100.804 125.547 101.011 125.16C101.217 124.767 101.504 124.463 101.871 124.25C102.244 124.03 102.674 123.92 103.161 123.92C103.641 123.92 104.054 124.03 104.401 124.25C104.754 124.463 105.024 124.747 105.211 125.1C105.397 125.453 105.491 125.833 105.491 126.24C105.491 126.313 105.487 126.387 105.481 126.46C105.481 126.533 105.481 126.617 105.481 126.71H101.531C101.551 127.09 101.637 127.407 101.791 127.66C101.951 127.907 102.147 128.093 102.381 128.22C102.621 128.347 102.874 128.41 103.141 128.41C103.487 128.41 103.777 128.33 104.011 128.17C104.244 128.01 104.414 127.793 104.521 127.52H105.351C105.217 127.98 104.961 128.363 104.581 128.67C104.207 128.97 103.727 129.12 103.141 129.12ZM103.141 124.63C102.741 124.63 102.384 124.753 102.071 125C101.764 125.24 101.587 125.593 101.541 126.06H104.661C104.641 125.613 104.487 125.263 104.201 125.01C103.914 124.757 103.561 124.63 103.141 124.63ZM108.668 129.12C108.175 129.12 107.742 129.007 107.368 128.78C107.002 128.553 106.715 128.243 106.508 127.85C106.308 127.457 106.208 127.01 106.208 126.51C106.208 126.01 106.312 125.567 106.518 125.18C106.725 124.787 107.012 124.48 107.378 124.26C107.745 124.033 108.178 123.92 108.678 123.92C109.085 123.92 109.445 124.003 109.758 124.17C110.072 124.337 110.315 124.57 110.488 124.87V121.8H111.328V129H110.568L110.488 128.18C110.328 128.42 110.098 128.637 109.798 128.83C109.498 129.023 109.122 129.12 108.668 129.12ZM108.758 128.39C109.092 128.39 109.385 128.313 109.638 128.16C109.898 128 110.098 127.78 110.238 127.5C110.385 127.22 110.458 126.893 110.458 126.52C110.458 126.147 110.385 125.82 110.238 125.54C110.098 125.26 109.898 125.043 109.638 124.89C109.385 124.73 109.092 124.65 108.758 124.65C108.432 124.65 108.138 124.73 107.878 124.89C107.625 125.043 107.425 125.26 107.278 125.54C107.138 125.82 107.068 126.147 107.068 126.52C107.068 126.893 107.138 127.22 107.278 127.5C107.425 127.78 107.625 128 107.878 128.16C108.138 128.313 108.432 128.39 108.758 128.39ZM115.023 129V122H117.323C117.869 122 118.319 122.09 118.673 122.27C119.026 122.45 119.286 122.693 119.453 123C119.626 123.307 119.713 123.653 119.713 124.04C119.713 124.42 119.629 124.763 119.463 125.07C119.296 125.377 119.036 125.623 118.683 125.81C118.329 125.99 117.876 126.08 117.323 126.08H115.863V129H115.023ZM115.863 125.37H117.303C117.863 125.37 118.259 125.253 118.493 125.02C118.733 124.78 118.853 124.453 118.853 124.04C118.853 123.62 118.733 123.293 118.493 123.06C118.259 122.82 117.863 122.7 117.303 122.7H115.863V125.37ZM122.545 129.12C122.078 129.12 121.658 129.013 121.285 128.8C120.912 128.587 120.615 128.287 120.395 127.9C120.182 127.507 120.075 127.047 120.075 126.52C120.075 125.993 120.185 125.537 120.405 125.15C120.625 124.757 120.922 124.453 121.295 124.24C121.675 124.027 122.098 123.92 122.565 123.92C123.032 123.92 123.452 124.027 123.825 124.24C124.198 124.453 124.492 124.757 124.705 125.15C124.925 125.537 125.035 125.993 125.035 126.52C125.035 127.047 124.925 127.507 124.705 127.9C124.485 128.287 124.185 128.587 123.805 128.8C123.432 129.013 123.012 129.12 122.545 129.12ZM122.545 128.4C122.832 128.4 123.098 128.33 123.345 128.19C123.592 128.05 123.792 127.84 123.945 127.56C124.098 127.28 124.175 126.933 124.175 126.52C124.175 126.107 124.098 125.76 123.945 125.48C123.798 125.2 123.602 124.99 123.355 124.85C123.108 124.71 122.845 124.64 122.565 124.64C122.278 124.64 122.012 124.71 121.765 124.85C121.518 124.99 121.318 125.2 121.165 125.48C121.012 125.76 120.935 126.107 120.935 126.52C120.935 126.933 121.012 127.28 121.165 127.56C121.318 127.84 121.515 128.05 121.755 128.19C122.002 128.33 122.265 128.4 122.545 128.4ZM127.917 129.12C127.324 129.12 126.831 128.97 126.437 128.67C126.044 128.37 125.814 127.963 125.747 127.45H126.607C126.661 127.71 126.797 127.937 127.017 128.13C127.244 128.317 127.547 128.41 127.927 128.41C128.281 128.41 128.541 128.337 128.707 128.19C128.874 128.037 128.957 127.857 128.957 127.65C128.957 127.35 128.847 127.15 128.627 127.05C128.414 126.95 128.111 126.86 127.717 126.78C127.451 126.727 127.184 126.65 126.917 126.55C126.651 126.45 126.427 126.31 126.247 126.13C126.067 125.943 125.977 125.7 125.977 125.4C125.977 124.967 126.137 124.613 126.457 124.34C126.784 124.06 127.224 123.92 127.777 123.92C128.304 123.92 128.734 124.053 129.067 124.32C129.407 124.58 129.604 124.953 129.657 125.44H128.827C128.794 125.187 128.684 124.99 128.497 124.85C128.317 124.703 128.074 124.63 127.767 124.63C127.467 124.63 127.234 124.693 127.067 124.82C126.907 124.947 126.827 125.113 126.827 125.32C126.827 125.52 126.931 125.677 127.137 125.79C127.351 125.903 127.637 126 127.997 126.08C128.304 126.147 128.594 126.23 128.867 126.33C129.147 126.423 129.374 126.567 129.547 126.76C129.727 126.947 129.817 127.22 129.817 127.58C129.824 128.027 129.654 128.397 129.307 128.69C128.967 128.977 128.504 129.12 127.917 129.12ZM132.567 129C132.114 129 131.757 128.89 131.497 128.67C131.237 128.45 131.107 128.053 131.107 127.48V124.75H130.247V124.04H131.107L131.217 122.85H131.947V124.04H133.407V124.75H131.947V127.48C131.947 127.793 132.01 128.007 132.137 128.12C132.264 128.227 132.487 128.28 132.807 128.28H133.327V129H132.567ZM136.188 129.12C135.595 129.12 135.102 128.97 134.708 128.67C134.315 128.37 134.085 127.963 134.018 127.45H134.878C134.932 127.71 135.068 127.937 135.288 128.13C135.515 128.317 135.818 128.41 136.198 128.41C136.552 128.41 136.812 128.337 136.978 128.19C137.145 128.037 137.228 127.857 137.228 127.65C137.228 127.35 137.118 127.15 136.898 127.05C136.685 126.95 136.382 126.86 135.988 126.78C135.722 126.727 135.455 126.65 135.188 126.55C134.922 126.45 134.698 126.31 134.518 126.13C134.338 125.943 134.248 125.7 134.248 125.4C134.248 124.967 134.408 124.613 134.728 124.34C135.055 124.06 135.495 123.92 136.048 123.92C136.575 123.92 137.005 124.053 137.338 124.32C137.678 124.58 137.875 124.953 137.928 125.44H137.098C137.065 125.187 136.955 124.99 136.768 124.85C136.588 124.703 136.345 124.63 136.038 124.63C135.738 124.63 135.505 124.693 135.338 124.82C135.178 124.947 135.098 125.113 135.098 125.32C135.098 125.52 135.202 125.677 135.408 125.79C135.622 125.903 135.908 126 136.268 126.08C136.575 126.147 136.865 126.23 137.138 126.33C137.418 126.423 137.645 126.567 137.818 126.76C137.998 126.947 138.088 127.22 138.088 127.58C138.095 128.027 137.925 128.397 137.578 128.69C137.238 128.977 136.775 129.12 136.188 129.12Z" fill="white"/>
<path d="M89.4554 112V102.582L87.5004 103.041V101.375L90.3734 100.1H91.7164V112H89.4554ZM97.9167 112.204C97.1347 112.204 96.4264 112.068 95.7917 111.796C95.1571 111.513 94.6471 111.082 94.2617 110.504C93.8764 109.926 93.6724 109.201 93.6497 108.328H95.7917C95.8031 108.906 95.9901 109.393 96.3527 109.79C96.7267 110.175 97.2481 110.368 97.9167 110.368C98.5514 110.368 99.0387 110.192 99.3787 109.841C99.7187 109.49 99.8887 109.048 99.8887 108.515C99.8887 107.892 99.6621 107.421 99.2087 107.104C98.7667 106.775 98.1944 106.611 97.4917 106.611H96.6077V104.826H97.5087C98.0867 104.826 98.5684 104.69 98.9537 104.418C99.3391 104.146 99.5317 103.744 99.5317 103.211C99.5317 102.769 99.3844 102.418 99.0897 102.157C98.8064 101.885 98.4097 101.749 97.8997 101.749C97.3444 101.749 96.9081 101.913 96.5907 102.242C96.2847 102.571 96.1147 102.973 96.0807 103.449H93.9557C94.0011 102.35 94.3807 101.483 95.0947 100.848C95.8201 100.213 96.7551 99.896 97.8997 99.896C98.7157 99.896 99.4014 100.043 99.9567 100.338C100.523 100.621 100.948 101.001 101.232 101.477C101.526 101.953 101.674 102.48 101.674 103.058C101.674 103.727 101.487 104.293 101.113 104.758C100.75 105.211 100.297 105.517 99.7527 105.676C100.421 105.812 100.965 106.141 101.385 106.662C101.804 107.172 102.014 107.818 102.014 108.6C102.014 109.257 101.855 109.858 101.538 110.402C101.22 110.946 100.756 111.382 100.144 111.711C99.5431 112.04 98.8007 112.204 97.9167 112.204ZM109.03 112.204C107.93 112.204 106.99 111.949 106.208 111.439C105.426 110.918 104.819 110.198 104.389 109.28C103.969 108.351 103.76 107.274 103.76 106.05C103.76 104.837 103.969 103.766 104.389 102.837C104.819 101.908 105.426 101.188 106.208 100.678C106.99 100.157 107.93 99.896 109.03 99.896C110.129 99.896 111.07 100.157 111.852 100.678C112.634 101.188 113.234 101.908 113.654 102.837C114.084 103.766 114.3 104.837 114.3 106.05C114.3 107.274 114.084 108.351 113.654 109.28C113.234 110.198 112.634 110.918 111.852 111.439C111.07 111.949 110.129 112.204 109.03 112.204ZM109.03 110.249C109.925 110.249 110.656 109.875 111.223 109.127C111.789 108.379 112.073 107.353 112.073 106.05C112.073 104.747 111.789 103.721 111.223 102.973C110.656 102.225 109.925 101.851 109.03 101.851C108.123 101.851 107.386 102.225 106.82 102.973C106.264 103.721 105.987 104.747 105.987 106.05C105.987 107.353 106.264 108.379 106.82 109.127C107.386 109.875 108.123 110.249 109.03 110.249Z" fill="white"/>
<rect x="90" y="61.6667" width="3" height="11.3333" rx="1.5" fill="white"/>
<rect x="97" y="58.3333" width="3" height="14.6667" rx="1.5" fill="white"/>
<rect x="111" y="58.3333" width="3" height="14.6667" rx="1.5" fill="white"/>
<rect x="104" y="55" width="3" height="18" rx="1.5" fill="white"/>
<defs>
<filter id="filter0_d" x="0" y="0" width="204" height="202" filterUnits="userSpaceOnUse" color-interpolation-filters="sRGB">
<feFlood flood-opacity="0" result="BackgroundImageFix"/>
<feColorMatrix in="SourceAlpha" type="matrix" values="0 0 0 0 0 0 0 0 0 0 0 0 0 0 0 0 0 0 127 0"/>
<feOffset dy="14"/>
<feGaussianBlur stdDeviation="17"/>
<feColorMatrix type="matrix" values="0 0 0 0 0.1325 0 0 0 0 0.145427 0 0 0 0 0.6625 0 0 0 0.4 0"/>
<feBlend mode="normal" in2="BackgroundImageFix" result="effect1_dropShadow"/>
<feBlend mode="normal" in="SourceGraphic" in2="effect1_dropShadow" result="shape"/>
</filter>
</defs>
</svg>
