<svg width="22" height="22" viewBox="0 0 22 22" fill="none" xmlns="http://www.w3.org/2000/svg">
<path fill-rule="evenodd" clip-rule="evenodd" d="M12.5 1C12.5 0.447715 12.0523 0 11.5 0H10.5C9.94772 0 9.5 0.447715 9.5 1V8.5C9.5 9.05229 9.05228 9.5 8.5 9.5H1C0.447715 9.5 0 9.94771 0 10.5V11.5C0 12.0523 0.447715 12.5 1 12.5H8.5C9.05229 12.5 9.5 12.9477 9.5 13.5V21C9.5 21.5523 9.94771 22 10.5 22H11.5C12.0523 22 12.5 21.5523 12.5 21V13.5C12.5 12.9477 12.9477 12.5 13.5 12.5H21C21.5523 12.5 22 12.0523 22 11.5V10.5C22 9.94771 21.5523 9.5 21 9.5H13.5C12.9477 9.5 12.5 9.05228 12.5 8.5V1Z" fill="white"/>
</svg>
