<svg width="136" height="136" viewBox="0 0 136 136" fill="none" xmlns="http://www.w3.org/2000/svg">
<rect y="2" width="136" height="134" rx="20" fill="#F6F8FF"/>
<path d="M38.9936 107L36.3636 100H37.2736L39.4836 106.11L41.7136 100H42.6036L39.9736 107H38.9936ZM43.8376 100.94C43.6709 100.94 43.5309 100.887 43.4176 100.78C43.3109 100.667 43.2576 100.527 43.2576 100.36C43.2576 100.2 43.3109 100.067 43.4176 99.96C43.5309 99.8533 43.6709 99.8 43.8376 99.8C43.9976 99.8 44.1342 99.8533 44.2476 99.96C44.3609 100.067 44.4176 100.2 44.4176 100.36C44.4176 100.527 44.3609 100.667 44.2476 100.78C44.1342 100.887 43.9976 100.94 43.8376 100.94ZM43.4176 107V102.04H44.2576V107H43.4176ZM47.7844 107.12C47.2911 107.12 46.8578 107.007 46.4844 106.78C46.1178 106.553 45.8311 106.243 45.6244 105.85C45.4244 105.457 45.3244 105.01 45.3244 104.51C45.3244 104.01 45.4278 103.567 45.6344 103.18C45.8411 102.787 46.1278 102.48 46.4944 102.26C46.8611 102.033 47.2944 101.92 47.7944 101.92C48.2011 101.92 48.5611 102.003 48.8744 102.17C49.1878 102.337 49.4311 102.57 49.6044 102.87V99.8H50.4444V107H49.6844L49.6044 106.18C49.4444 106.42 49.2144 106.637 48.9144 106.83C48.6144 107.023 48.2378 107.12 47.7844 107.12ZM47.8744 106.39C48.2078 106.39 48.5011 106.313 48.7544 106.16C49.0144 106 49.2144 105.78 49.3544 105.5C49.5011 105.22 49.5744 104.893 49.5744 104.52C49.5744 104.147 49.5011 103.82 49.3544 103.54C49.2144 103.26 49.0144 103.043 48.7544 102.89C48.5011 102.73 48.2078 102.65 47.8744 102.65C47.5478 102.65 47.2544 102.73 46.9944 102.89C46.7411 103.043 46.5411 103.26 46.3944 103.54C46.2544 103.82 46.1844 104.147 46.1844 104.52C46.1844 104.893 46.2544 105.22 46.3944 105.5C46.5411 105.78 46.7411 106 46.9944 106.16C47.2544 106.313 47.5478 106.39 47.8744 106.39ZM53.858 107.12C53.3847 107.12 52.9647 107.013 52.598 106.8C52.2313 106.58 51.9413 106.277 51.728 105.89C51.5213 105.503 51.418 105.047 51.418 104.52C51.418 104 51.5213 103.547 51.728 103.16C51.9347 102.767 52.2213 102.463 52.588 102.25C52.9613 102.03 53.3913 101.92 53.878 101.92C54.358 101.92 54.7713 102.03 55.118 102.25C55.4713 102.463 55.7413 102.747 55.928 103.1C56.1147 103.453 56.208 103.833 56.208 104.24C56.208 104.313 56.2047 104.387 56.198 104.46C56.198 104.533 56.198 104.617 56.198 104.71H52.248C52.268 105.09 52.3547 105.407 52.508 105.66C52.668 105.907 52.8647 106.093 53.098 106.22C53.338 106.347 53.5913 106.41 53.858 106.41C54.2047 106.41 54.4947 106.33 54.728 106.17C54.9613 106.01 55.1313 105.793 55.238 105.52H56.068C55.9347 105.98 55.678 106.363 55.298 106.67C54.9247 106.97 54.4447 107.12 53.858 107.12ZM53.858 102.63C53.458 102.63 53.1013 102.753 52.788 103C52.4813 103.24 52.3047 103.593 52.258 104.06H55.378C55.358 103.613 55.2047 103.263 54.918 103.01C54.6313 102.757 54.278 102.63 53.858 102.63ZM59.3956 107.12C58.929 107.12 58.509 107.013 58.1356 106.8C57.7623 106.587 57.4656 106.287 57.2456 105.9C57.0323 105.507 56.9256 105.047 56.9256 104.52C56.9256 103.993 57.0356 103.537 57.2556 103.15C57.4756 102.757 57.7723 102.453 58.1456 102.24C58.5256 102.027 58.949 101.92 59.4156 101.92C59.8823 101.92 60.3023 102.027 60.6756 102.24C61.049 102.453 61.3423 102.757 61.5556 103.15C61.7756 103.537 61.8856 103.993 61.8856 104.52C61.8856 105.047 61.7756 105.507 61.5556 105.9C61.3356 106.287 61.0356 106.587 60.6556 106.8C60.2823 107.013 59.8623 107.12 59.3956 107.12ZM59.3956 106.4C59.6823 106.4 59.949 106.33 60.1956 106.19C60.4423 106.05 60.6423 105.84 60.7956 105.56C60.949 105.28 61.0256 104.933 61.0256 104.52C61.0256 104.107 60.949 103.76 60.7956 103.48C60.649 103.2 60.4523 102.99 60.2056 102.85C59.959 102.71 59.6956 102.64 59.4156 102.64C59.129 102.64 58.8623 102.71 58.6156 102.85C58.369 102.99 58.169 103.2 58.0156 103.48C57.8623 103.76 57.7856 104.107 57.7856 104.52C57.7856 104.933 57.8623 105.28 58.0156 105.56C58.169 105.84 58.3656 106.05 58.6056 106.19C58.8523 106.33 59.1156 106.4 59.3956 106.4ZM64.7679 107.12C64.1746 107.12 63.6812 106.97 63.2879 106.67C62.8946 106.37 62.6646 105.963 62.5979 105.45H63.4579C63.5112 105.71 63.6479 105.937 63.8679 106.13C64.0946 106.317 64.3979 106.41 64.7779 106.41C65.1312 106.41 65.3912 106.337 65.5579 106.19C65.7246 106.037 65.8079 105.857 65.8079 105.65C65.8079 105.35 65.6979 105.15 65.4779 105.05C65.2646 104.95 64.9612 104.86 64.5679 104.78C64.3012 104.727 64.0346 104.65 63.7679 104.55C63.5012 104.45 63.2779 104.31 63.0979 104.13C62.9179 103.943 62.8279 103.7 62.8279 103.4C62.8279 102.967 62.9879 102.613 63.3079 102.34C63.6346 102.06 64.0746 101.92 64.6279 101.92C65.1546 101.92 65.5846 102.053 65.9179 102.32C66.2579 102.58 66.4546 102.953 66.5079 103.44H65.6779C65.6446 103.187 65.5346 102.99 65.3479 102.85C65.1679 102.703 64.9246 102.63 64.6179 102.63C64.3179 102.63 64.0846 102.693 63.9179 102.82C63.7579 102.947 63.6779 103.113 63.6779 103.32C63.6779 103.52 63.7812 103.677 63.9879 103.79C64.2012 103.903 64.4879 104 64.8479 104.08C65.1546 104.147 65.4446 104.23 65.7179 104.33C65.9979 104.423 66.2246 104.567 66.3979 104.76C66.5779 104.947 66.6679 105.22 66.6679 105.58C66.6746 106.027 66.5046 106.397 66.1579 106.69C65.8179 106.977 65.3546 107.12 64.7679 107.12ZM70.193 107V100H72.493C73.0396 100 73.4896 100.09 73.843 100.27C74.1963 100.45 74.4563 100.693 74.623 101C74.7963 101.307 74.883 101.653 74.883 102.04C74.883 102.42 74.7996 102.763 74.633 103.07C74.4663 103.377 74.2063 103.623 73.853 103.81C73.4996 103.99 73.0463 104.08 72.493 104.08H71.033V107H70.193ZM71.033 103.37H72.473C73.033 103.37 73.4296 103.253 73.663 103.02C73.903 102.78 74.023 102.453 74.023 102.04C74.023 101.62 73.903 101.293 73.663 101.06C73.4296 100.82 73.033 100.7 72.473 100.7H71.033V103.37ZM75.7483 107V99.8H76.5883V107H75.7483ZM79.4293 107.12C79.016 107.12 78.6727 107.05 78.3993 106.91C78.126 106.77 77.9227 106.583 77.7893 106.35C77.656 106.117 77.5893 105.863 77.5893 105.59C77.5893 105.083 77.7827 104.693 78.1693 104.42C78.556 104.147 79.0827 104.01 79.7493 104.01H81.0893V103.95C81.0893 103.517 80.976 103.19 80.7493 102.97C80.5227 102.743 80.2193 102.63 79.8393 102.63C79.5127 102.63 79.2293 102.713 78.9893 102.88C78.756 103.04 78.6093 103.277 78.5493 103.59H77.6893C77.7227 103.23 77.8427 102.927 78.0493 102.68C78.2627 102.433 78.526 102.247 78.8393 102.12C79.1527 101.987 79.486 101.92 79.8393 101.92C80.5327 101.92 81.0527 102.107 81.3993 102.48C81.7527 102.847 81.9293 103.337 81.9293 103.95V107H81.1793L81.1293 106.11C80.9893 106.39 80.7827 106.63 80.5093 106.83C80.2427 107.023 79.8827 107.12 79.4293 107.12ZM79.5593 106.41C79.8793 106.41 80.1527 106.327 80.3793 106.16C80.6127 105.993 80.7893 105.777 80.9093 105.51C81.0293 105.243 81.0893 104.963 81.0893 104.67V104.66H79.8193C79.326 104.66 78.976 104.747 78.7693 104.92C78.5693 105.087 78.4693 105.297 78.4693 105.55C78.4693 105.81 78.5627 106.02 78.7493 106.18C78.9427 106.333 79.2127 106.41 79.5593 106.41ZM83.3973 109.2L84.6273 106.52H84.3373L82.3673 102.04H83.2773L84.9173 105.9L86.6573 102.04H87.5273L84.2773 109.2H83.3973ZM89.9895 107.12C89.5161 107.12 89.0961 107.013 88.7295 106.8C88.3628 106.58 88.0728 106.277 87.8595 105.89C87.6528 105.503 87.5495 105.047 87.5495 104.52C87.5495 104 87.6528 103.547 87.8595 103.16C88.0661 102.767 88.3528 102.463 88.7195 102.25C89.0928 102.03 89.5228 101.92 90.0095 101.92C90.4895 101.92 90.9028 102.03 91.2495 102.25C91.6028 102.463 91.8728 102.747 92.0595 103.1C92.2461 103.453 92.3395 103.833 92.3395 104.24C92.3395 104.313 92.3361 104.387 92.3295 104.46C92.3295 104.533 92.3295 104.617 92.3295 104.71H88.3795C88.3995 105.09 88.4861 105.407 88.6395 105.66C88.7995 105.907 88.9961 106.093 89.2295 106.22C89.4695 106.347 89.7228 106.41 89.9895 106.41C90.3361 106.41 90.6261 106.33 90.8595 106.17C91.0928 106.01 91.2628 105.793 91.3695 105.52H92.1995C92.0661 105.98 91.8095 106.363 91.4295 106.67C91.0561 106.97 90.5761 107.12 89.9895 107.12ZM89.9895 102.63C89.5895 102.63 89.2328 102.753 88.9195 103C88.6128 103.24 88.4361 103.593 88.3895 104.06H91.5095C91.4895 103.613 91.3361 103.263 91.0495 103.01C90.7628 102.757 90.4095 102.63 89.9895 102.63ZM95.5171 107.12C95.0238 107.12 94.5905 107.007 94.2171 106.78C93.8505 106.553 93.5638 106.243 93.3571 105.85C93.1571 105.457 93.0571 105.01 93.0571 104.51C93.0571 104.01 93.1605 103.567 93.3671 103.18C93.5738 102.787 93.8605 102.48 94.2271 102.26C94.5938 102.033 95.0271 101.92 95.5271 101.92C95.9338 101.92 96.2938 102.003 96.6071 102.17C96.9205 102.337 97.1638 102.57 97.3371 102.87V99.8H98.1771V107H97.4171L97.3371 106.18C97.1771 106.42 96.9471 106.637 96.6471 106.83C96.3471 107.023 95.9705 107.12 95.5171 107.12ZM95.6071 106.39C95.9405 106.39 96.2338 106.313 96.4871 106.16C96.7471 106 96.9471 105.78 97.0871 105.5C97.2338 105.22 97.3071 104.893 97.3071 104.52C97.3071 104.147 97.2338 103.82 97.0871 103.54C96.9471 103.26 96.7471 103.043 96.4871 102.89C96.2338 102.73 95.9405 102.65 95.6071 102.65C95.2805 102.65 94.9871 102.73 94.7271 102.89C94.4738 103.043 94.2738 103.26 94.1271 103.54C93.9871 103.82 93.9171 104.147 93.9171 104.52C93.9171 104.893 93.9871 105.22 94.1271 105.5C94.2738 105.78 94.4738 106 94.7271 106.16C94.9871 106.313 95.2805 106.39 95.6071 106.39Z" fill="#8F92A1"/>
<path d="M57.3207 90V87.79H51.4557V86.056L57.0317 78.1H59.4967V85.903H61.0607V87.79H59.4967V90H57.3207ZM53.7847 85.903H57.4567V80.497L53.7847 85.903ZM67.6503 90.204C66.551 90.204 65.6103 89.949 64.8283 89.439C64.0463 88.9177 63.44 88.198 63.0093 87.28C62.59 86.3507 62.3803 85.274 62.3803 84.05C62.3803 82.8373 62.59 81.7663 63.0093 80.837C63.44 79.9077 64.0463 79.188 64.8283 78.678C65.6103 78.1567 66.551 77.896 67.6503 77.896C68.7496 77.896 69.6903 78.1567 70.4723 78.678C71.2543 79.188 71.855 79.9077 72.2743 80.837C72.705 81.7663 72.9203 82.8373 72.9203 84.05C72.9203 85.274 72.705 86.3507 72.2743 87.28C71.855 88.198 71.2543 88.9177 70.4723 89.439C69.6903 89.949 68.7496 90.204 67.6503 90.204ZM67.6503 88.249C68.5456 88.249 69.2766 87.875 69.8433 87.127C70.41 86.379 70.6933 85.3533 70.6933 84.05C70.6933 82.7467 70.41 81.721 69.8433 80.973C69.2766 80.225 68.5456 79.851 67.6503 79.851C66.7436 79.851 66.007 80.225 65.4403 80.973C64.885 81.721 64.6073 82.7467 64.6073 84.05C64.6073 85.3533 64.885 86.379 65.4403 87.127C66.007 87.875 66.7436 88.249 67.6503 88.249ZM74.7896 90V77.76H76.9656V84.985L79.9576 81.568H82.5416L79.0906 85.41L83.1026 90H80.3826L76.9656 85.767V90H74.7896Z" fill="#272835"/>
<g filter="url(#filter0_d)">
<circle cx="68" cy="41" r="21" fill="white"/>
</g>
<path d="M64 47.1315V34.8685C64 34.0698 64.8901 33.5934 65.5547 34.0365L74.7519 40.1679C75.3457 40.5638 75.3457 41.4362 74.7519 41.8321L65.5547 47.9635C64.8901 48.4066 64 47.9302 64 47.1315Z" fill="#3D41D7"/>
<defs>
<filter id="filter0_d" x="13" y="0" width="110" height="110" filterUnits="userSpaceOnUse" color-interpolation-filters="sRGB">
<feFlood flood-opacity="0" result="BackgroundImageFix"/>
<feColorMatrix in="SourceAlpha" type="matrix" values="0 0 0 0 0 0 0 0 0 0 0 0 0 0 0 0 0 0 127 0"/>
<feOffset dy="14"/>
<feGaussianBlur stdDeviation="17"/>
<feColorMatrix type="matrix" values="0 0 0 0 0.1325 0 0 0 0 0.145427 0 0 0 0 0.6625 0 0 0 0.4 0"/>
<feBlend mode="normal" in2="BackgroundImageFix" result="effect1_dropShadow"/>
<feBlend mode="normal" in="SourceGraphic" in2="effect1_dropShadow" result="shape"/>
</filter>
</defs>
</svg>
