<svg width="16" height="16" viewBox="0 0 16 16" fill="none" xmlns="http://www.w3.org/2000/svg">
<circle cx="8" cy="8" r="8" fill="#DE350B"/>
<path d="M7.92084 11.096C7.53151 11.096 7.20351 11.0213 6.93684 10.872C6.67018 10.7173 6.46218 10.5173 6.31284 10.272C6.16351 10.0267 6.07551 9.76267 6.04884 9.48H7.00084C7.04351 9.72533 7.14484 9.91467 7.30484 10.048C7.47018 10.1813 7.67818 10.248 7.92884 10.248C8.28618 10.248 8.57418 10.0853 8.79284 9.76C9.01151 9.42933 9.12884 8.928 9.14484 8.256C9.01684 8.47467 8.82218 8.656 8.56084 8.8C8.30484 8.944 8.02218 9.016 7.71284 9.016C7.40351 9.016 7.11284 8.94133 6.84084 8.792C6.56884 8.64267 6.34751 8.432 6.17684 8.16C6.00618 7.888 5.92084 7.568 5.92084 7.2C5.92084 6.864 6.00351 6.552 6.16884 6.264C6.33418 5.976 6.56351 5.744 6.85684 5.568C7.15018 5.392 7.49418 5.304 7.88884 5.304C8.31018 5.304 8.66484 5.38133 8.95284 5.536C9.24084 5.69067 9.47018 5.89867 9.64084 6.16C9.81684 6.42133 9.94218 6.712 10.0168 7.032C10.0968 7.352 10.1368 7.68 10.1368 8.016C10.1368 8.64 10.0488 9.184 9.87284 9.648C9.70218 10.1067 9.44884 10.464 9.11284 10.72C8.78218 10.9707 8.38484 11.096 7.92084 11.096ZM7.95284 8.152C8.15018 8.152 8.32884 8.10933 8.48884 8.024C8.64884 7.93333 8.77418 7.816 8.86484 7.672C8.95551 7.52267 9.00084 7.35733 9.00084 7.176C9.00084 6.888 8.89951 6.65067 8.69684 6.464C8.49951 6.27733 8.24884 6.184 7.94484 6.184C7.64618 6.184 7.39818 6.27733 7.20084 6.464C7.00351 6.64533 6.90484 6.87733 6.90484 7.16C6.90484 7.45867 7.00351 7.69867 7.20084 7.88C7.39818 8.06133 7.64884 8.152 7.95284 8.152Z" fill="#D3D3FD"/>
</svg>
